<?xml version="1.0" encoding="utf-8"?>
<!-- Generator: Adobe Illustrator 25.2.3, SVG Export Plug-In . SVG Version: 6.00 Build 0)  -->
<svg version="1.1" id="Layer_1" xmlns="http://www.w3.org/2000/svg" xmlns:xlink="http://www.w3.org/1999/xlink" x="0px" y="0px"
	 viewBox="0 0 100 100" style="enable-background:new 0 0 100 100;" xml:space="preserve">
<style type="text/css">
	.st0{fill:none;stroke:#CA0606;stroke-miterlimit:10;}
	.st1{fill:none;stroke:#CA0606;stroke-miterlimit:10.0004;}
</style>
<g>
	<path class="st0" d="M21,73.3c-1.9-4.7-2.9-9.8-2.9-15.1c0-3.6,0.5-7.1,1.4-10.4"/>
	<path class="st0" d="M26.6,33.4c7.4-9.5,18.9-15.6,31.9-15.6c22.3,0,40.4,18.1,40.4,40.4S80.8,98.5,58.5,98.5
		c-9.2,0-17.7-3.1-24.4-8.2"/>
	<path class="st0" d="M85.5,43.5c2.4,4.4,3.7,9.3,3.7,14.6c0,17-13.8,30.7-30.7,30.7S27.7,75.1,27.7,58.1s13.8-30.7,30.7-30.7
		c5,0,9.7,1.2,13.9,3.3"/>
	<polyline class="st0" points="45.2,52.6 57.8,64.9 80.6,35.3 	"/>
	<line class="st0" x1="25" y1="22.3" x2="16.3" y2="22.3"/>
	<line class="st0" x1="16" y1="40.2" x2="1.8" y2="40.2"/>
	<line class="st0" x1="10.7" y1="59.8" x2="2.5" y2="59.8"/>
	<line class="st0" x1="30.3" y1="80.4" x2="16.3" y2="80.4"/>
	<line class="st0" x1="8.7" y1="80.4" x2="1.2" y2="80.4"/>
	<line class="st0" x1="23.4" y1="40.2" x2="26.9" y2="40.2"/>
	<line class="st0" x1="8.7" y1="22.3" x2="4.9" y2="22.3"/>
	<polyline class="st0" points="41.9,21 39,12.9 44.2,10.9 47.1,19.1 	"/>
	<polyline class="st0" points="85.6,28.4 92.1,22.7 95.8,26.9 89.3,32.6 	"/>
	<polyline class="st0" points="64.6,18 66.8,9.6 72.2,10.9 70.1,19.3 	"/>
	
		<rect x="67.1" y="-2.2" transform="matrix(0.2313 -0.9729 0.9729 0.2313 47.4279 73.9005)" class="st1" width="6.8" height="18.3"/>
</g>
</svg>
