<?xml version="1.0" encoding="utf-8"?>
<!-- Generator: Adobe Illustrator 25.2.3, SVG Export Plug-In . SVG Version: 6.00 Build 0)  -->
<svg version="1.1" id="Layer_1" xmlns="http://www.w3.org/2000/svg" xmlns:xlink="http://www.w3.org/1999/xlink" x="0px" y="0px"
	 viewBox="0 0 100 100" style="enable-background:new 0 0 100 100;" xml:space="preserve">
<style type="text/css">
	.st0{fill:none;stroke:#CA0606;stroke-miterlimit:10;}
</style>
<g>
	<path class="st0" d="M50,5.1c0,0-36.9-1.9-44.6,40.7c0,0,11.6-11.6,27.2,0c0,0,5.8-5.8,17.5-5.8s17.5,5.8,17.5,5.8
		c15.5-11.6,27.2,0,27.2,0C86.9,3.1,50,5.1,50,5.1z"/>
	<path class="st0" d="M67.5,45.8C71.3,14.8,50,5.1,50,5.1s-21.3,9.7-17.5,40.7"/>
	<path class="st0" d="M50,40v50.4c0,0,0,7.8-7.8,7.8s-7.8-7.8-7.8-7.8v-3.9"/>
	<line class="st0" x1="50" y1="5.1" x2="50" y2="1.2"/>
</g>
</svg>
